<mxfile host="app.diagrams.net" modified="2023-03-31T23:44:03.158Z" agent="Mozilla/5.0 (Macintosh; Intel Mac OS X 10_15_7) AppleWebKit/537.36 (KHTML, like Gecko) Chrome/111.0.0.0 Safari/537.36" version="21.1.2" etag="ry9C5JIv59YRmqDb697J" type="github">
  <diagram name="ページ1" id="YRXsjdM-_6GnKZPeKfJW">
    <mxGraphModel>
      <root>
        <mxCell id="0" />
        <mxCell id="1" parent="0" />
      </root>
    </mxGraphModel>
  </diagram>
</mxfile>
